<svg xmlns="http://www.w3.org/2000/svg" xmlns:xlink="http://www.w3.org/1999/xlink" aria-hidden="true" role="img" class="iconify iconify--logos" viewBox="0 0 291 52" height="20px">
    <g fill="none" fill-rule="evenodd">
        <path d="M0 0h291v52H0z"></path>
        <path
            d="M149.363 17.495c9.355.795 16.227 8.25 16.227 17.42 0 9.056-6.701 16.384-15.877 17.325l-.35.033v-7.451c4.883-.793 8.154-5.013 8.154-9.907 0-5.12-3.31-9.046-7.883-9.92l-.27-.049v-7.45zm-3.304 0v7.451c-4.712.77-8.155 4.748-8.155 9.97 0 4.797 3.144 8.947 7.87 9.855l.285.05v7.452c-9.356-.789-16.228-8.188-16.228-17.358 0-9.055 6.701-16.438 15.878-17.387l.35-.033zm-90.138 0c5.858 0 10.29 2.655 13.38 6.534l.223.286-5.902 5.034c-2.025-2.687-4.959-4.268-7.85-4.268-5.046 0-9.137 3.991-9.137 9.706 0 5.805 4.245 9.861 9.293 9.861 3.411 0 5.685-1.165 7.98-3.662l.245-.272 5.73 5.098c-3.235 3.852-8.316 6.461-13.955 6.461-9.606 0-17.394-7.183-17.394-17.393 0-9.606 7.346-17.385 17.387-17.385zm167.866 0c9.114 0 15.717 7.554 15.87 17.046l.003.497-.024.995-.048 1.077h-24.82c.663 4.76 4.51 8.097 9.336 8.097 3.534 0 6.537-1.469 8.763-4.113l5.348 4.718c-3.236 3.852-8.055 6.461-13.955 6.461-9.606 0-17.394-7.303-17.394-17.548 0-9.606 7.315-17.23 16.92-17.23zM202.606.272v42.721l1.874 8.42h-7.231l-1.693-3.14c-2.535 2.225-6.013 3.999-10.258 3.999-9.304 0-16.27-7.641-16.27-17.383 0-10.069 7.71-17.395 16.883-17.395 3.351 0 6.334 1.233 8.768 3.04V2.15l7.927-1.877zm75.877 17.22c5.822 0 9.96 2.978 11.96 5.903l.135.204-5.065 4.496c-1.366-2.33-4.486-3.963-7.084-3.963-2.922 0-5.011 1.186-5.011 3.12 0 1.56 1.528 2.557 4.17 3.391l.561.17c.096.029.194.057.293.085l.608.165.638.162.666.161.344.08c.503.115 1 .245 1.488.39l.582.18c4.718 1.537 8.513 4.548 8.513 9.768 0 5.81-5.143 10.468-12.105 10.468-5.908 0-11.397-2.529-14.304-6.688l-.194-.286 5.07-4.55c2.429 3.284 5.518 4.7 9.217 4.7 3.238 0 4.954-1.555 4.954-3.45 0-1.966-2.072-3.095-4.82-3.822l-.54-.136-.406-.1-.793-.201c-.39-.103-.771-.209-1.143-.317l-.73-.22c-6.104-1.904-9.464-4.673-9.464-9.65 0-6.123 6.258-10.06 12.46-10.06zM17.761 2.15c7.478 0 11.962 3.485 14.95 7.017l.36.433.343.431.167.215-6.007 5.523c-2.663-3.653-5.84-5.697-9.948-5.697-4.612 0-7.68 2.836-7.68 5.87 0 2.545 1.775 3.983 4.8 5.022l.547.18.572.172c.195.056.394.111.597.165l.62.16 1.42.34 2.493.629.972.252c8.45 2.212 13.014 7.303 13.014 14.825 0 7.802-6.971 14.586-17.03 14.586-8.604 0-14.993-5.196-17.401-10.582l-.117-.27 7.01-4.262c2.828 5.722 7.175 7.011 10.818 7.011 4.096 0 7.822-2.64 7.822-6.494 0-3.04-2.144-5.484-7.525-6.877l-.943-.238-3.517-.854C5.4 27.592 1.262 23.047 1.262 16.548 1.262 8.313 8.805 2.15 17.76 2.15zM80.854.273v21.254c2.85-2.526 6.305-4.032 10.029-4.032 9.027 0 13.382 7.32 13.488 17.141l.002.37v16.407h-7.908V35.304c0-7.298-2.82-10.29-7.722-10.29-3.001 0-5.739 1.818-7.683 4.062l-.206.242v22.095h-7.928V2.15L80.854.273zm179.292 17.222c1.15-.014 2.359.122 3.61.455l.47.134-.9 7.577a12.002 12.002 0 00-4.037-.709c-2.956 0-5.486 1.354-7.427 3.644l-.213.259v22.558h-7.927V18.32h5.47l1.846 3.595c2.054-2.458 5.019-4.369 9.108-4.419zm-134.21 0a13.425 13.425 0 014.08.59l-.9 7.576a12.002 12.002 0 00-4.037-.709c-3.066 0-5.673 1.456-7.64 3.903v22.558h-7.927V18.32h5.47l1.848 3.595c2.052-2.458 5.017-4.369 9.107-4.419zm60.758 7.273c-5.3 0-9.638 4.373-9.638 9.985 0 6.432 4.577 10.26 9.482 10.26 3.115 0 6.053-1.398 8.14-3.474V27.74c-2.016-1.784-4.727-2.972-7.984-2.972zm36.636-.215c-4.061 0-7.329 2.904-8.342 6.638h16.448c-.511-3.235-3.528-6.638-8.106-6.638z"
            fill="#002A5E"></path>
    </g>
</svg>
